<svg xmlns="http://www.w3.org/2000/svg" width="100.59" height="112.107" viewBox="0 0 100.59 112.107">
  <path id="html5_hover" data-name="html5 hover" d="M5.219,4l.434,5.1,8.164,92.281.294,3.21,3.06.872L54.2,115.818l1.166.289,1.311-.289,37.032-10.207,3.06-.872.289-3.21L105.375,9.1l.434-4.959h-5.1L10.323,4Zm10.2,9.33,80.184.145L88.025,97.447l-32.511,9.046-32.656-9.05Zm11.229,14,3.06,34.844H69.654L68.343,77.182l-12.829,3.5h-.145l-12.829-3.5-.728-9.619H30.149l1.6,18.516,23.624,6.559h.14l23.62-6.559,3.2-35.427H40.207L39.186,38.844H83.36l1.017-11.518Z" transform="translate(-5.219 -4)" fill="#f9ca30"/>
</svg>
