<svg xmlns="http://www.w3.org/2000/svg" width="112.108" height="112.11" viewBox="0 0 112.108 112.11">
  <path id="js1" d="M449.919,7422.31c-9.781,0-16.1-4.662-19.187-10.76l8.576-4.967c2.259,3.688,5.191,6.4,10.387,6.4,4.361,0,7.147-2.182,7.147-5.189,0-4.529-6.043-6.3-10.308-8.127-7.6-3.237-12.646-7.3-12.646-15.883,0-7.9,6.02-13.915,15.432-13.915,6.693,0,11.513,2.331,14.972,8.423l-8.2,5.269c-1.8-3.233-3.761-4.512-6.771-4.512-3.089,0-5.045,1.955-5.045,4.512,0,3.161,1.956,4.439,6.474,6.4,9.468,4.06,16.631,7.246,16.631,17.684,0,9.484-7.45,14.674-17.461,14.674Zm-24.26-15.879c0,10.912-6.721,16.682-16.054,16.682-8.43,0-13.481-3.223-15.964-8.829H393.5l8.57-5.993c1.654,2.933,3.145,5.014,6.754,5.014,3.464,0,5.628-1.754,5.628-7.018v-36.834h11.211v36.989ZM364,7431.11H476.108V7319H364Z" transform="translate(-364 -7319)" fill="#292e34" fill-rule="evenodd"/>
</svg>
