<svg xmlns="http://www.w3.org/2000/svg" width="163.067" height="112.108" viewBox="0 0 163.067 112.108">
  <path id="saas_hover" data-name="saas hover" d="M163,159.34c-.532-4.331-2.942-7.691-6.623-10.324.91.65,1.68,1.2-.018-.013-2.29-1.634-1.077-.768-.015-.01-9.077-6.466-20.918-5.029-30.809-1.437-3.964-6.464-4.136-11.4-1.852-18.453.3-.892.094-1.387-.836-1.785-2.257-.965-5.507-.454-7.778.147a1.851,1.851,0,0,0-1.529,1.4c-1.642,7.721-6.691,14.794-11.093,21.3-3.1-5.941-2.854-10.538-.769-16.726a1.073,1.073,0,0,0-.617-1.554c-2.312-1.2-5.861-.609-8.217.088-2.71.791-6.781,14.2-8.081,16.863-2.717,5.555-5.125,14.226-9.741,18.633-3.918-5.035,7.175-16.408,3.466-20.974a3.415,3.415,0,0,0-4.964-.2c.346-2.423.525-4.016-.1-6.072a4.535,4.535,0,0,0-4.806-3.341c-5.731.168-10.779,4.4-14.218,8.407-3.273,3.855-11.906,6.251-16.547,8.576-7.973-6.946-25.232-14.316-25.681-26.143-.487-13.328,15.39-22.373,25.989-27.782,13.785-7.04,35.023-15.8,50.685-8.1a8.926,8.926,0,0,1,4.684,10.621c-2.984,10.946-15.033,18.248-25.513,21.6-5.156,1.648-10.819,2.875-16.275,2.556-7.311-.428-13-4.849-13.785-5.123-.653-.124-.6.72-.429,1.167,7.585,19.885,46,5.313,56.042-4.9,4.838-4.912,7.776-9.671,9.03-17.165,1.47-8.785-4.979-14.282-9.875-16.548C67.908,72.559,33.6,87.6,14.835,102.948,6.691,109.6-3.5,120.181,1.179,131.276c5.074,12.041,20.618,18.215,30.736,25.579-8.187,4.068-18.429,8.276-23.734,15.9-3.033,4.373-4.11,9.032-1.851,14,4,8.78,18.564,4.976,24.707,1.1,5.628-3.545,9.416-8.3,11.052-14.4a22.73,22.73,0,0,0-1.228-15.77l9.1-4.6c-2.451,7.35-3.534,16.563,1.555,23.2,2.039,2.656,7.331,2.763,9.5.1,2.808-3.485,4.67-7.853,6.53-11.85-.217,2.985-.591,6.369.439,8.971,1.182,2.985,3.862,3.6,6.622,1.7,8.447-5.8,13.822-21.866,17.983-31.233a52.242,52.242,0,0,0,4.445,11.586,1.68,1.68,0,0,1-.254,2.292c-3.085,3.4-10.455,9.071-11.169,13.663a2.09,2.09,0,0,0,1.811,2.347c4.96.99,10.459-.806,14.486-3.528,4.2-2.842,5.557-6.716,4.537-11.312-1.457-6.616,3.5-14.008,8.218-19.438a33.749,33.749,0,0,0,4.5,11.659c-4.164,3.657-10.377,8.843-9.485,14.95a3.7,3.7,0,0,0,4.623,3.1c5.027-1.059,9.369-3.221,12.539-7.053,2.874-3.457,1.845-7.23.591-11.031,7.6-2.171,15.3-2.6,22.878-.009a14.137,14.137,0,0,1,8.36,6.631c2.142,4.027.936,7.737-3.2,10.384-1.047.67-1.772,1.221-1.417,1.511s1.561.673,4.231-1a9.508,9.508,0,0,0,4.721-6.919,11.814,11.814,0,0,0-.008-2.47ZM35.97,167.385c-.429,5.315-3.07,9.615-7.378,13.1a16.676,16.676,0,0,1-8.447,3.851c-3,.292-5.335-.465-5.535-3.577C14.048,172,27.644,163.42,35.193,160.837a17.781,17.781,0,0,1,.775,6.557l.005-.01Zm32.838-23.076c-1.243,7.1-4.723,19.857-10.292,24.95-.75.683-1.468.643-1.85-.246-3.295-7.663,1.169-23.464,10.537-25.9,1.1-.286,1.787.187,1.608,1.2ZM91.2,170.352q4.024-4.282,8.048-8.576c.336,3.192-5.593,9.544-8.045,8.576Zm25.707-5.636c-.748.4-2.427.8-2.493.266-.472-3.849,3.763-7.922,6.391-9.831,1.422,3.613-.257,7.591-3.894,9.565Z" transform="translate(0.002 -79.996)" fill="#f9ca30"/>
</svg>
