<svg xmlns="http://www.w3.org/2000/svg" width="112.108" height="112.108" viewBox="0 0 112.108 112.108">
  <path id="wordpress" d="M58.054,2a56.054,56.054,0,1,0,56.053,56.053A56.054,56.054,0,0,0,58.054,2ZM7.658,58.052a50.2,50.2,0,0,1,4.363-20.51l24.04,65.865a50.4,50.4,0,0,1-28.4-45.356Zm50.4,50.4A50.379,50.379,0,0,1,43.815,106.4L58.939,62.46,74.428,104.9a4.73,4.73,0,0,0,.361.695,50.288,50.288,0,0,1-16.735,2.857ZM65,34.423c3.034-.159,5.768-.479,5.768-.479a2.083,2.083,0,1,0-.322-4.154s-8.163.641-13.433.641c-4.951,0-13.272-.641-13.272-.641a2.083,2.083,0,1,0-.32,4.154s2.57.319,5.286.478l7.852,21.513L45.527,89.013,27.176,34.423c3.036-.159,5.767-.478,5.767-.478a2.083,2.083,0,1,0-.322-4.154s-8.161.641-13.431.641c-.946,0-2.061-.023-3.243-.061a50.381,50.381,0,0,1,76.138-9.483c-.217-.013-.429-.04-.652-.04a8.726,8.726,0,0,0-8.463,8.944,23.6,23.6,0,0,0,4.95,11.82,26.545,26.545,0,0,1,4.155,13.9A61,61,0,0,1,88.241,71.8L83.213,88.6ZM83.39,101.612l15.393-44.5a47.583,47.583,0,0,0,3.832-18.051,38.735,38.735,0,0,0-.339-5.182A50.4,50.4,0,0,1,83.39,101.612Z" transform="translate(-2 -2)" fill="#292e34"/>
</svg>
